<svg width="186" height="28" viewBox="0 0 186 28" fill="none" xmlns="http://www.w3.org/2000/svg">
<path d="M12.9199 26H7.89258L7.89258 5.83789L0.316406 5.83789L0.316406 0.792969L20.4785 0.792969L20.4785 5.83789L12.9199 5.83789L12.9199 26ZM28.1953 5.83789V15.9277L33.2402 15.9277C33.9316 15.9277 34.582 15.7988 35.1914 15.541C35.8008 15.2715 36.334 14.9082 36.791 14.4512C37.248 13.9941 37.6055 13.4609 37.8633 12.8516C38.1328 12.2305 38.2676 11.5742 38.2676 10.8828C38.2676 10.1914 38.1328 9.54102 37.8633 8.93164C37.6055 8.31055 37.248 7.77148 36.791 7.31445C36.334 6.85742 35.8008 6.5 35.1914 6.24219C34.582 5.97266 33.9316 5.83789 33.2402 5.83789H28.1953ZM28.1953 26H23.1504L23.1504 0.792969L33.2402 0.792969C34.166 0.792969 35.0566 0.916016 35.9121 1.16211C36.7676 1.39648 37.5645 1.73633 38.3027 2.18164C39.0527 2.61523 39.7324 3.14258 40.3418 3.76367C40.9629 4.37305 41.4902 5.05273 41.9238 5.80273C42.3691 6.55273 42.709 7.35547 42.9434 8.21094C43.1895 9.06641 43.3125 9.95703 43.3125 10.8828C43.3125 11.75 43.2012 12.5938 42.9785 13.4141C42.7676 14.2344 42.457 15.0137 42.0469 15.752C41.6484 16.4902 41.1562 17.1699 40.5703 17.791C39.9844 18.4121 39.3281 18.9512 38.6016 19.4082L41.3965 26H36.0352L33.8379 20.9199L28.1953 20.9551L28.1953 26ZM61.4707 15.9277L61.4707 10.8828C61.4707 10.1914 61.3359 9.54102 61.0664 8.93164C60.8086 8.31055 60.4512 7.77148 59.9941 7.31445C59.5371 6.85742 58.998 6.5 58.377 6.24219C57.7676 5.97266 57.1172 5.83789 56.4258 5.83789C55.7344 5.83789 55.0781 5.97266 54.457 6.24219C53.8477 6.5 53.3145 6.85742 52.8574 7.31445C52.4004 7.77148 52.0371 8.31055 51.7676 8.93164C51.5098 9.54102 51.3809 10.1914 51.3809 10.8828L51.3809 15.9277L61.4707 15.9277ZM66.5156 26L61.4707 26V20.9551L51.3809 20.9551V26H46.3535L46.3535 10.8828C46.3535 9.48828 46.6172 8.18164 47.1445 6.96289C47.6719 5.73242 48.3867 4.66016 49.2891 3.74609C50.2031 2.83203 51.2695 2.11133 52.4883 1.58398C53.7188 1.05664 55.0312 0.792969 56.4258 0.792969C57.8203 0.792969 59.127 1.05664 60.3457 1.58398C61.5762 2.11133 62.6484 2.83203 63.5625 3.74609C64.4766 4.66016 65.1973 5.73242 65.7246 6.96289C66.252 8.18164 66.5156 9.48828 66.5156 10.8828V26ZM89.5957 0.792969L81.3164 26H76.2715L68.0273 0.792969L73.7578 0.792969L78.7852 17.6152L83.8301 0.792969H89.5957ZM109.301 26H92.0215V0.792969L109.301 0.792969V5.83789L97.0664 5.83789V10.8828L105.346 10.8828V15.9277L97.0664 15.9277V20.9551L109.301 20.9551V26ZM130.482 26H112.834V0.792969L117.879 0.792969V20.9551L130.482 20.9551V26ZM150.768 26H133.119V0.792969L138.164 0.792969V20.9551L150.768 20.9551V26ZM177.223 13.502C177.223 14.6973 177.064 15.8516 176.748 16.9648C176.443 18.0664 176.01 19.1035 175.447 20.0762C174.885 21.0371 174.205 21.916 173.408 22.7129C172.611 23.5098 171.732 24.1953 170.771 24.7695C169.811 25.332 168.773 25.7656 167.66 26.0703C166.547 26.3867 165.393 26.5449 164.197 26.5449C163.002 26.5449 161.848 26.3867 160.734 26.0703C159.633 25.7656 158.596 25.332 157.623 24.7695C156.662 24.1953 155.783 23.5098 154.986 22.7129C154.189 21.916 153.504 21.0371 152.93 20.0762C152.367 19.1035 151.928 18.0664 151.611 16.9648C151.307 15.8516 151.154 14.6973 151.154 13.502C151.154 12.3066 151.307 11.1523 151.611 10.0391C151.928 8.92578 152.367 7.88867 152.93 6.92773C153.504 5.9668 154.189 5.08789 154.986 4.29102C155.783 3.49414 156.662 2.81445 157.623 2.25195C158.596 1.68945 159.633 1.25586 160.734 0.951172C161.848 0.634766 163.002 0.476563 164.197 0.476563C165.393 0.476563 166.547 0.634766 167.66 0.951172C168.773 1.25586 169.811 1.68945 170.771 2.25195C171.732 2.81445 172.611 3.49414 173.408 4.29102C174.205 5.08789 174.885 5.9668 175.447 6.92773C176.01 7.88867 176.443 8.92578 176.748 10.0391C177.064 11.1523 177.223 12.3066 177.223 13.502ZM172.213 13.502C172.213 12.4004 172.002 11.3633 171.58 10.3906C171.158 9.40625 170.584 8.55664 169.857 7.8418C169.143 7.11523 168.293 6.54102 167.309 6.11914C166.336 5.69727 165.299 5.48633 164.197 5.48633C163.084 5.48633 162.041 5.69727 161.068 6.11914C160.096 6.54102 159.246 7.11523 158.52 7.8418C157.793 8.55664 157.219 9.40625 156.797 10.3906C156.375 11.3633 156.164 12.4004 156.164 13.502C156.164 14.6035 156.375 15.6406 156.797 16.6133C157.219 17.5742 157.793 18.418 158.52 19.1445C159.246 19.8711 160.096 20.4453 161.068 20.8672C162.041 21.2891 163.084 21.5 164.197 21.5C165.299 21.5 166.336 21.2891 167.309 20.8672C168.293 20.4453 169.143 19.8711 169.857 19.1445C170.584 18.418 171.158 17.5742 171.58 16.6133C172.002 15.6406 172.213 14.6035 172.213 13.502ZM185.414 24.207C185.414 24.6289 185.338 25.0273 185.186 25.4023C185.033 25.7656 184.822 26.082 184.553 26.3516C184.283 26.6211 183.967 26.832 183.604 26.9844C183.24 27.1484 182.848 27.2305 182.426 27.2305C182.016 27.2305 181.623 27.1484 181.248 26.9844C180.885 26.832 180.562 26.6211 180.281 26.3516C180.012 26.082 179.795 25.7656 179.631 25.4023C179.479 25.0273 179.402 24.6289 179.402 24.207C179.402 23.7969 179.479 23.4102 179.631 23.0469C179.795 22.6836 180.012 22.3672 180.281 22.0977C180.562 21.8281 180.885 21.6172 181.248 21.4648C181.623 21.3008 182.016 21.2188 182.426 21.2188C182.848 21.2188 183.24 21.3008 183.604 21.4648C183.967 21.6172 184.283 21.8281 184.553 22.0977C184.822 22.3672 185.033 22.6836 185.186 23.0469C185.338 23.4102 185.414 23.7969 185.414 24.207Z" fill="white"/>
</svg>
